Coordinates
version=1
nRows=12
nColumns=24
inDegrees=yes

Units are S.I. units (second, meters, Newtons, ...)
Angles are in degrees.

endheader
time	pelvis_tilt	pelvis_list	pelvis_rotation	pelvis_tx	pelvis_ty	pelvis_tz	hip_flexion_r	hip_adduction_r	hip_rotation_r	knee_angle_r	ankle_angle_r	subtalar_angle_r	mtp_angle_r	hip_flexion_l	hip_adduction_l	hip_rotation_l	knee_angle_l	ankle_angle_l	subtalar_angle_l	mtp_angle_l	lumbar_extension	lumbar_bending	lumbar_rotation
      0.92033333	     -0.81887659	     -0.36195420	     -1.84854160	     -0.16904606	      0.97737638	      0.29802727	    -10.70357130	      3.77899439	     -4.42194272	    -12.12293600	     17.17375348	      2.48524031	     -2.64588810	     25.36767407	      1.94083912	     -3.66812285	     -7.55318166	      0.59615991	     -4.89507146	      0.57545823	     -0.47457117	      4.00356226	      7.60386366
      0.92450000	     -0.88226554	     -0.28589656	     -1.86077662	     -0.16319130	      0.97678407	      0.29771801	    -10.63928731	      3.64439148	     -4.32866259	    -12.83936442	     17.26259074	      2.36873206	     -2.58555627	     25.38207872	      2.09804503	     -3.52181798	     -7.76251938	      0.32383043	     -5.05424914	      0.78159824	     -0.37238121	      3.92532432	      7.62476808
      0.92866667	     -0.88411635	     -0.19954150	     -1.85397674	     -0.15728083	      0.97631019	      0.29740025	    -10.63166276	      3.49910027	     -4.27577156	    -13.56908253	     17.19709222	      2.23525458	     -2.56870505	     25.35410994	      2.26436223	     -3.44359335	     -8.08823571	      0.10760586	     -5.11519446	      0.83848979	     -0.33965437	      3.82773846	      7.61789892
      0.93283333	     -1.00132573	     -0.10086054	     -1.85810462	     -0.15139408	      0.97573524	      0.29705288	    -10.43636236	      3.34000320	     -4.17901427	    -14.43049836	     17.34301720	      2.15284435	     -2.47665160	     25.41781190	      2.45467282	     -3.18783781	     -8.39558818	     -0.26407709	     -5.50212758	      1.06918926	     -0.16114856	      3.71502734	      7.62533815
      0.93700000	     -1.07407285	     -0.01379978	     -1.84142320	     -0.14548109	      0.97524433	      0.29669442	    -10.27149662	      3.19622371	     -4.11266710	    -15.31721335	     17.32501906	      2.03705518	     -2.35333262	     25.45598636	      2.63486015	     -2.96781852	     -8.79702880	     -0.59773140	     -5.84266854	      1.35161769	     -0.02604361	      3.60118397	      7.60980039
      0.94116667	     -1.12463536	      0.10300442	     -1.82691749	     -0.13950916	      0.97485059	      0.29632615	    -10.10832464	      3.01803258	     -4.04022057	    -16.24529256	     17.26646607	      1.89132577	     -2.21409790	     25.45959393	      2.84282574	     -2.77306606	     -9.22312409	     -0.93746908	     -6.16479360	      1.62181623	      0.07826479	      3.46210052	      7.58950914
      0.94533333	     -1.16918145	      0.20536199	     -1.79565186	     -0.13354380	      0.97448414	      0.29594275	     -9.92090425	      2.85840371	     -3.97776944	    -17.22460476	     17.15232374	      1.75264864	     -2.01011168	     25.47084704	      3.04199300	     -2.55284462	     -9.71003299	     -1.27573162	     -6.56964524	      1.95295177	      0.18273415	      3.32550616	      7.55959805
      0.94950000	     -1.17981415	      0.34728301	     -1.75561395	     -0.12749759	      0.97421162	      0.29551331	     -9.73815360	      2.64071897	     -3.99387554	    -18.25784724	     16.91445949	      1.65857717	      0.76748699	     25.43339082	      3.28112859	     -2.38714161	    -10.19980859	     -1.65419389	     -6.93646971	      5.65751412	      0.25140747	      3.15481512	      7.51360037
      0.95366667	     -1.24053781	      0.45541589	     -1.73769155	     -0.12150084	      0.97393571	      0.29513663	     -9.46338741	      2.47463446	     -3.88226975	    -19.35388406	     16.67031724	      1.42494274	      0.82455764	     25.45785401	      3.47272502	     -2.21506179	    -10.73457964	     -1.98090874	     -7.29320436	      5.65759863	      0.37502493	      3.01995751	      7.48319152
      0.95783333	     -1.29205454	      0.57654846	     -1.70806948	     -0.11549414	      0.97369688	      0.29472169	     -9.15259710	      2.28561765	     -3.82197433	    -20.53186508	     16.39039986	      1.25768380	      0.92111019	     25.46438720	      3.68380040	     -2.02320066	    -11.26990029	     -2.29643234	     -7.66787700	      5.66611395	      0.48978853	      2.87183954	      7.43544284
      0.96200000	     -1.34116158	      0.71232952	     -1.67738115	     -0.10947346	      0.97350791	      0.29428345	     -8.80306835	      2.07202788	     -3.78765388	    -21.77414852	     16.03568217	      1.12719549	      1.05489313	     25.46212672	      3.90908131	     -1.84404608	    -11.80991458	     -2.59950621	     -8.04737796	      5.67913488	      0.60131805	      2.71276229	      7.38207248
      0.96616667	     -1.35832335	      0.86261904	     -1.64013023	     -0.10344448	      0.97339361	      0.29381447	     -8.44727399	      1.83032209	     -3.79689681	    -23.08132247	     15.63662916	      1.07827587	      1.45389239	     25.41278333	      4.15898758	     -1.63066708	    -12.34065916	     -2.86218847	     -8.56558866	      5.71742796	      0.67769254	      2.52087594	      7.32434133
